<svg width="99" height="25" viewBox="0 0 99 25" fill="none" xmlns="http://www.w3.org/2000/svg">
<path d="M6.244 23.968L0.42 0.951999H4.872L9.1 18.172L13.272 0.979999L17.752 0.951999L21.924 18.172L26.152 0.951999H30.604L24.78 23.968H19.46L15.512 7.98L11.564 23.968H6.244ZM38.7126 6.552C40.0566 6.552 41.2606 6.81333 42.3246 7.336C43.4073 7.85867 44.2566 8.624 44.8726 9.632C45.5073 10.6213 45.8246 11.7973 45.8246 13.16V23.968H41.7646L41.5686 21.924C41.1393 22.708 40.542 23.3147 39.7766 23.744C39.0113 24.1733 38.1246 24.388 37.1166 24.388H36.0806C35.0913 24.388 34.186 24.1453 33.3646 23.66C32.562 23.1933 31.9273 22.54 31.4606 21.7C30.994 20.86 30.7606 19.8987 30.7606 18.816C30.7606 17.2667 31.2926 16.0067 32.3566 15.036C33.4393 14.0467 34.97 13.552 36.9486 13.552H41.4846V13.3C41.4846 12.4973 41.2233 11.844 40.7006 11.34C40.178 10.8173 39.4126 10.556 38.4046 10.556C37.0046 10.556 35.9686 11.1627 35.2966 12.376L31.3766 10.724C32.0673 9.492 33.066 8.49333 34.3726 7.728C35.6793 6.944 37.126 6.552 38.7126 6.552ZM38.0966 20.356C38.918 20.356 39.646 20.1507 40.2806 19.74C40.934 19.3293 41.3353 18.76 41.4846 18.032V17.276H37.0326C36.454 17.276 35.9873 17.416 35.6326 17.696C35.278 17.976 35.1006 18.3587 35.1006 18.844C35.1006 19.3107 35.278 19.684 35.6326 19.964C35.9873 20.2253 36.454 20.356 37.0326 20.356H38.0966ZM53.7154 23.968H49.3194V0.951999H53.7154V23.968ZM67.9359 23.632C67.4319 23.8747 66.8345 24.0613 66.1439 24.192C65.4532 24.3227 64.7812 24.388 64.1279 24.388C62.4665 24.388 61.1599 23.9587 60.2079 23.1C59.2745 22.2413 58.8079 21.0093 58.8079 19.404V10.976H56.2319V6.972H58.8079V2.632H63.2039V6.972H67.1239V10.976H63.2039V18.704C63.2039 19.32 63.3345 19.7587 63.5959 20.02C63.8572 20.2627 64.2585 20.384 64.7999 20.384C65.4905 20.384 66.2279 20.244 67.0119 19.964L67.9359 23.632ZM85.1099 17.08H73.6579C73.8073 18.2 74.2086 19.0587 74.8619 19.656C75.5153 20.2347 76.2993 20.524 77.2139 20.524C78.0726 20.524 78.8193 20.3467 79.4539 19.992C80.0886 19.6187 80.5459 19.0867 80.8259 18.396L84.8299 19.572C84.3633 21.1027 83.4486 22.288 82.0859 23.128C80.7233 23.968 79.0993 24.388 77.2139 24.388C75.7393 24.388 74.4046 24.0707 73.2099 23.436C72.0339 22.82 71.0913 21.9053 70.3819 20.692C69.6913 19.46 69.3459 17.9667 69.3459 16.212V14.7C69.3459 12.964 69.6913 11.48 70.3819 10.248C71.0913 9.016 72.0339 8.092 73.2099 7.476C74.4046 6.86 75.7393 6.552 77.2139 6.552C78.6886 6.552 80.0233 6.86 81.2179 7.476C82.4126 8.092 83.3553 9.016 84.0459 10.248C84.7553 11.48 85.1099 12.9733 85.1099 14.728V17.08ZM80.7979 13.496C80.7979 12.9547 80.6299 12.4507 80.2939 11.984C79.9766 11.4987 79.5379 11.116 78.9779 10.836C78.4366 10.556 77.8486 10.416 77.2139 10.416C76.3553 10.416 75.6086 10.6773 74.9739 11.2C74.3393 11.7227 73.9193 12.488 73.7139 13.496H80.7979ZM96.6829 6.552C97.0562 6.552 97.4389 6.58933 97.8309 6.664C98.2416 6.73867 98.5776 6.832 98.8389 6.944L97.8029 10.892C97.1869 10.668 96.5429 10.556 95.8709 10.556C95.0309 10.556 94.2936 10.7893 93.6589 11.256C93.0429 11.7227 92.7349 12.4973 92.7349 13.58V23.968H88.3389V6.972H92.4549L92.6229 8.96C93.5376 7.35467 94.8909 6.552 96.6829 6.552Z" fill="#FFC400"/>
</svg>
