<svg width="44" height="44" viewBox="0 0 44 44" fill="none" xmlns="http://www.w3.org/2000/svg">
<path fill-rule="evenodd" clip-rule="evenodd" d="M2 27.5142V16.4858C2 12.7762 3.89286 9.34581 6.96918 7.47933L16.9692 1.41387C20.078 -0.471291 23.9198 -0.471291 27.0286 1.41387L37.0286 7.47933C40.106 9.34581 42 12.7762 42 16.4858V27.5142C42 31.2238 40.1071 34.6542 37.0308 36.5207L27.0308 42.5861C23.922 44.4713 20.0802 44.4713 16.9714 42.5861L6.97142 36.5207C3.89398 34.6542 2 31.2238 2 27.5142Z" fill="#FFFAE9"/>
<path d="M22.0002 21.7599V11.4072M21.997 29.8118C21.5551 29.8118 21.197 30.0694 21.2002 30.3873C21.2002 30.7052 21.5583 30.9628 22.0002 30.9628C22.4421 30.9628 22.8002 30.7052 22.8002 30.3873C22.8002 30.0694 22.4405 29.8118 21.9986 29.8118" stroke="#FFC400" stroke-width="2" stroke-linecap="round" stroke-linejoin="round"/>
</svg>
