<svg width="18" height="18" viewBox="0 0 18 18" fill="none" xmlns="http://www.w3.org/2000/svg">
<path d="M6.2 6.2C6.2 6.585 5.885 6.9 5.5 6.9H2.7C2.315 6.9 2 6.585 2 6.2V3.4C2 3.015 2.315 2.7 2.7 2.7C3.085 2.7 3.4 3.015 3.4 3.4V4.835C4.674 3.12 6.697 2 9 2C12.864 2 16 5.136 16 9C16 12.864 12.864 16 9 16C5.136 16 2 12.864 2 9C2 8.615 2.315 8.3 2.7 8.3C3.085 8.3 3.4 8.615 3.4 9C3.4 12.094 5.906 14.6 9 14.6C12.094 14.6 14.6 12.094 14.6 9C14.6 5.906 12.094 3.4 9 3.4C7.229 3.4 5.661 4.219 4.632 5.5H5.5C5.885 5.5 6.2 5.815 6.2 6.2Z" fill="#C0C0C0"/>
</svg>
